<mxfile host="app.diagrams.net" modified="2023-11-14T05:45:25.203Z" agent="Mozilla/5.0 (Windows NT 10.0; Win64; x64) AppleWebKit/537.36 (KHTML, like Gecko) Chrome/119.0.0.0 Safari/537.36" etag="eHaahUIqJoiy71Md1mQj" version="22.1.0" type="github">
  <diagram id="C5RBs43oDa-KdzZeNtuy" name="Page-1">
    <mxGraphModel dx="1235" dy="675" grid="1" gridSize="10" guides="1" tooltips="1" connect="1" arrows="1" fold="1" page="1" pageScale="1" pageWidth="827" pageHeight="1169" math="0" shadow="0">
      <root>
        <mxCell id="WIyWlLk6GJQsqaUBKTNV-0" />
        <mxCell id="WIyWlLk6GJQsqaUBKTNV-1" parent="WIyWlLk6GJQsqaUBKTNV-0" />
        <mxCell id="2nOwkgRxG5hWw0p1MQ7W-56" value="" style="group" vertex="1" connectable="0" parent="WIyWlLk6GJQsqaUBKTNV-1">
          <mxGeometry x="70" y="120" width="1220" height="770" as="geometry" />
        </mxCell>
        <mxCell id="2nOwkgRxG5hWw0p1MQ7W-58" style="edgeStyle=orthogonalEdgeStyle;rounded=0;orthogonalLoop=1;jettySize=auto;html=1;strokeColor=#788AA3;fontColor=#46495D;fillColor=#B2C9AB;dashed=1;" edge="1" parent="2nOwkgRxG5hWw0p1MQ7W-56" source="2nOwkgRxG5hWw0p1MQ7W-3">
          <mxGeometry relative="1" as="geometry">
            <mxPoint x="330" y="140" as="targetPoint" />
          </mxGeometry>
        </mxCell>
        <mxCell id="2nOwkgRxG5hWw0p1MQ7W-3" value="Screen" style="swimlane;whiteSpace=wrap;html=1;rounded=0;labelBackgroundColor=none;fillColor=#B2C9AB;strokeColor=#788AA3;fontColor=#46495D;" vertex="1" parent="2nOwkgRxG5hWw0p1MQ7W-56">
          <mxGeometry x="230" width="200" height="90" as="geometry" />
        </mxCell>
        <mxCell id="2nOwkgRxG5hWw0p1MQ7W-13" value="+ main(String[] args)" style="text;html=1;strokeColor=none;fillColor=none;align=center;verticalAlign=middle;whiteSpace=wrap;rounded=0;fontStyle=4;labelBackgroundColor=none;fontColor=#46495D;" vertex="1" parent="2nOwkgRxG5hWw0p1MQ7W-3">
          <mxGeometry x="12" y="50" width="170" height="30" as="geometry" />
        </mxCell>
        <mxCell id="2nOwkgRxG5hWw0p1MQ7W-12" value="" style="endArrow=none;html=1;rounded=0;exitX=0;exitY=0.5;exitDx=0;exitDy=0;entryX=1;entryY=0.5;entryDx=0;entryDy=0;labelBackgroundColor=none;strokeColor=#788AA3;fontColor=default;" edge="1" parent="2nOwkgRxG5hWw0p1MQ7W-56" source="2nOwkgRxG5hWw0p1MQ7W-3" target="2nOwkgRxG5hWw0p1MQ7W-3">
          <mxGeometry width="50" height="50" relative="1" as="geometry">
            <mxPoint x="240" y="190" as="sourcePoint" />
            <mxPoint x="350" y="400" as="targetPoint" />
          </mxGeometry>
        </mxCell>
        <mxCell id="2nOwkgRxG5hWw0p1MQ7W-22" value="" style="group;rounded=0;labelBackgroundColor=none;fontColor=#46495D;" vertex="1" connectable="0" parent="2nOwkgRxG5hWw0p1MQ7W-56">
          <mxGeometry x="230" y="150" width="200" height="150" as="geometry" />
        </mxCell>
        <mxCell id="2nOwkgRxG5hWw0p1MQ7W-4" value="GameScreen" style="swimlane;whiteSpace=wrap;html=1;rounded=0;labelBackgroundColor=none;fillColor=#B2C9AB;strokeColor=#788AA3;fontColor=#46495D;" vertex="1" parent="2nOwkgRxG5hWw0p1MQ7W-22">
          <mxGeometry y="-10" width="200" height="153" as="geometry" />
        </mxCell>
        <mxCell id="2nOwkgRxG5hWw0p1MQ7W-16" value="- cardLayout : CardLayout&lt;br&gt;- cardPanel : JPanel&lt;br&gt;&lt;u&gt;+ WIDTH : int&lt;br&gt;+ HEIGHT : int&lt;/u&gt;" style="text;html=1;strokeColor=none;fillColor=none;align=center;verticalAlign=middle;whiteSpace=wrap;rounded=0;labelBackgroundColor=none;fontColor=#46495D;" vertex="1" parent="2nOwkgRxG5hWw0p1MQ7W-4">
          <mxGeometry x="18" y="50" width="158" height="30" as="geometry" />
        </mxCell>
        <mxCell id="2nOwkgRxG5hWw0p1MQ7W-15" value="" style="endArrow=none;html=1;rounded=0;exitX=0;exitY=0.5;exitDx=0;exitDy=0;entryX=1;entryY=0.5;entryDx=0;entryDy=0;labelBackgroundColor=none;strokeColor=#788AA3;fontColor=default;" edge="1" parent="2nOwkgRxG5hWw0p1MQ7W-22">
          <mxGeometry width="50" height="50" relative="1" as="geometry">
            <mxPoint y="102" as="sourcePoint" />
            <mxPoint x="200" y="102" as="targetPoint" />
          </mxGeometry>
        </mxCell>
        <mxCell id="2nOwkgRxG5hWw0p1MQ7W-17" value="+ GameScreen()" style="text;html=1;strokeColor=none;fillColor=none;align=center;verticalAlign=middle;whiteSpace=wrap;rounded=0;labelBackgroundColor=none;fontColor=#46495D;" vertex="1" parent="2nOwkgRxG5hWw0p1MQ7W-22">
          <mxGeometry x="37" y="113" width="118" height="30" as="geometry" />
        </mxCell>
        <mxCell id="2nOwkgRxG5hWw0p1MQ7W-26" value="" style="group;rounded=0;labelBackgroundColor=none;fontColor=#46495D;" vertex="1" connectable="0" parent="2nOwkgRxG5hWw0p1MQ7W-56">
          <mxGeometry x="359" y="389" width="285.0000000000002" height="170" as="geometry" />
        </mxCell>
        <mxCell id="2nOwkgRxG5hWw0p1MQ7W-8" value="JoinScreen" style="swimlane;whiteSpace=wrap;html=1;rounded=0;labelBackgroundColor=none;fillColor=#B2C9AB;strokeColor=#788AA3;fontColor=#46495D;" vertex="1" parent="2nOwkgRxG5hWw0p1MQ7W-26">
          <mxGeometry width="285" height="170" as="geometry" />
        </mxCell>
        <mxCell id="2nOwkgRxG5hWw0p1MQ7W-19" value="- cardLayout : CardLayout&lt;br style=&quot;border-color: var(--border-color);&quot;&gt;- cardPanel : JPanel&lt;br&gt;- nickname : JTextField&lt;br&gt;- password : JTextField&lt;br&gt;- dataManager : DataManager" style="text;html=1;strokeColor=none;fillColor=none;align=center;verticalAlign=middle;whiteSpace=wrap;rounded=0;labelBackgroundColor=none;fontColor=#46495D;" vertex="1" parent="2nOwkgRxG5hWw0p1MQ7W-8">
          <mxGeometry x="52.5" y="50" width="180" height="30" as="geometry" />
        </mxCell>
        <mxCell id="2nOwkgRxG5hWw0p1MQ7W-24" value="+ JoinScreen(layout : CardLayout, panel : JPanel)" style="text;html=1;strokeColor=none;fillColor=none;align=center;verticalAlign=middle;whiteSpace=wrap;rounded=0;labelBackgroundColor=none;fontColor=#46495D;" vertex="1" parent="2nOwkgRxG5hWw0p1MQ7W-8">
          <mxGeometry x="-5" y="130" width="290" height="30" as="geometry" />
        </mxCell>
        <mxCell id="2nOwkgRxG5hWw0p1MQ7W-23" value="" style="endArrow=none;html=1;rounded=0;entryX=1;entryY=0.5;entryDx=0;entryDy=0;exitX=0;exitY=0.5;exitDx=0;exitDy=0;labelBackgroundColor=none;strokeColor=#788AA3;fontColor=default;" edge="1" parent="2nOwkgRxG5hWw0p1MQ7W-26">
          <mxGeometry width="50" height="50" relative="1" as="geometry">
            <mxPoint y="111" as="sourcePoint" />
            <mxPoint x="285.0000000000002" y="111" as="targetPoint" />
          </mxGeometry>
        </mxCell>
        <mxCell id="2nOwkgRxG5hWw0p1MQ7W-35" value="" style="group;rounded=0;labelBackgroundColor=none;fontColor=#46495D;" vertex="1" connectable="0" parent="2nOwkgRxG5hWw0p1MQ7W-56">
          <mxGeometry x="-1" y="389" width="290" height="170" as="geometry" />
        </mxCell>
        <mxCell id="2nOwkgRxG5hWw0p1MQ7W-28" value="- cardLayout : CardLayout&lt;br style=&quot;border-color: var(--border-color);&quot;&gt;- cardPanel : JPanel&lt;br&gt;- nickname : JTextField&lt;br&gt;- password : JTextField&lt;br&gt;- dataManager : DataManager&lt;br&gt;- userData : String[]" style="text;html=1;strokeColor=none;fillColor=none;align=center;verticalAlign=middle;whiteSpace=wrap;rounded=0;labelBackgroundColor=none;fontColor=#46495D;" vertex="1" parent="2nOwkgRxG5hWw0p1MQ7W-35">
          <mxGeometry x="52" y="54" width="180" height="30" as="geometry" />
        </mxCell>
        <mxCell id="2nOwkgRxG5hWw0p1MQ7W-29" value="+ LoginScreen(layout : CardLayout, panel : JPanel)&lt;br&gt;+ getUser() : String[]" style="text;html=1;strokeColor=none;fillColor=none;align=center;verticalAlign=middle;whiteSpace=wrap;rounded=0;labelBackgroundColor=none;fontColor=#46495D;" vertex="1" parent="2nOwkgRxG5hWw0p1MQ7W-35">
          <mxGeometry y="134" width="290" height="30" as="geometry" />
        </mxCell>
        <mxCell id="2nOwkgRxG5hWw0p1MQ7W-30" value="" style="group;rounded=0;labelBackgroundColor=none;fontColor=#46495D;" vertex="1" connectable="0" parent="2nOwkgRxG5hWw0p1MQ7W-35">
          <mxGeometry x="4" width="285.0000000000002" height="170" as="geometry" />
        </mxCell>
        <mxCell id="2nOwkgRxG5hWw0p1MQ7W-31" value="JoinScreen" style="swimlane;whiteSpace=wrap;html=1;rounded=0;labelBackgroundColor=none;fillColor=#B2C9AB;strokeColor=#788AA3;fontColor=#46495D;" vertex="1" parent="2nOwkgRxG5hWw0p1MQ7W-30">
          <mxGeometry width="285" height="170" as="geometry" />
        </mxCell>
        <mxCell id="2nOwkgRxG5hWw0p1MQ7W-34" value="" style="endArrow=none;html=1;rounded=0;entryX=1;entryY=0.5;entryDx=0;entryDy=0;exitX=0;exitY=0.5;exitDx=0;exitDy=0;labelBackgroundColor=none;strokeColor=#788AA3;fontColor=default;" edge="1" parent="2nOwkgRxG5hWw0p1MQ7W-30">
          <mxGeometry width="50" height="50" relative="1" as="geometry">
            <mxPoint y="122" as="sourcePoint" />
            <mxPoint x="285.0000000000002" y="122" as="targetPoint" />
          </mxGeometry>
        </mxCell>
        <mxCell id="2nOwkgRxG5hWw0p1MQ7W-39" value="" style="group;rounded=0;labelBackgroundColor=none;fontColor=#46495D;" vertex="1" connectable="0" parent="2nOwkgRxG5hWw0p1MQ7W-56">
          <mxGeometry x="140" y="600" width="380" height="160" as="geometry" />
        </mxCell>
        <mxCell id="2nOwkgRxG5hWw0p1MQ7W-9" value="DataManager" style="swimlane;whiteSpace=wrap;html=1;rounded=0;labelBackgroundColor=none;fillColor=#B2C9AB;strokeColor=#788AA3;fontColor=#46495D;" vertex="1" parent="2nOwkgRxG5hWw0p1MQ7W-39">
          <mxGeometry width="380" height="160" as="geometry" />
        </mxCell>
        <mxCell id="2nOwkgRxG5hWw0p1MQ7W-36" value="&lt;u&gt;- fileName : String = &quot;user_data.txt&quot;&lt;/u&gt;" style="text;html=1;strokeColor=none;fillColor=none;align=center;verticalAlign=middle;whiteSpace=wrap;rounded=0;labelBackgroundColor=none;fontColor=#46495D;" vertex="1" parent="2nOwkgRxG5hWw0p1MQ7W-9">
          <mxGeometry x="74" y="30" width="220" height="30" as="geometry" />
        </mxCell>
        <mxCell id="2nOwkgRxG5hWw0p1MQ7W-37" value="+ saveData(nickname : String, password : String)&lt;br&gt;+clear(nicknameField : JTextField, passwordField : JTextField)&lt;br&gt;+ dataCheck(inputN : String, inputP : String) : boolean&lt;br&gt;+ pwCheck(inputP : String) : boolean&lt;br&gt;+ getData(inputN String) :String[]" style="text;html=1;strokeColor=none;fillColor=none;align=center;verticalAlign=middle;whiteSpace=wrap;rounded=0;labelBackgroundColor=none;fontColor=#46495D;" vertex="1" parent="2nOwkgRxG5hWw0p1MQ7W-9">
          <mxGeometry x="-1" y="100" width="370" height="30" as="geometry" />
        </mxCell>
        <mxCell id="2nOwkgRxG5hWw0p1MQ7W-38" value="" style="endArrow=none;html=1;rounded=0;labelBackgroundColor=none;strokeColor=#788AA3;fontColor=default;" edge="1" parent="2nOwkgRxG5hWw0p1MQ7W-39">
          <mxGeometry width="50" height="50" relative="1" as="geometry">
            <mxPoint y="70" as="sourcePoint" />
            <mxPoint x="380" y="70" as="targetPoint" />
          </mxGeometry>
        </mxCell>
        <mxCell id="2nOwkgRxG5hWw0p1MQ7W-50" value="" style="group;labelBackgroundColor=none;fontColor=#46495D;" vertex="1" connectable="0" parent="2nOwkgRxG5hWw0p1MQ7W-56">
          <mxGeometry x="590" y="120" width="501" height="140" as="geometry" />
        </mxCell>
        <mxCell id="2nOwkgRxG5hWw0p1MQ7W-45" value="CardInfo" style="swimlane;whiteSpace=wrap;html=1;rounded=0;labelBackgroundColor=none;fillColor=#B2C9AB;strokeColor=#788AA3;fontColor=#46495D;" vertex="1" parent="2nOwkgRxG5hWw0p1MQ7W-50">
          <mxGeometry width="501" height="140" as="geometry" />
        </mxCell>
        <mxCell id="2nOwkgRxG5hWw0p1MQ7W-46" value="- cardLayout : CardLayout&lt;br&gt;- cardPanel : JPanel&lt;br&gt;- data : String[]" style="text;html=1;strokeColor=none;fillColor=none;align=center;verticalAlign=middle;whiteSpace=wrap;rounded=0;labelBackgroundColor=none;fontColor=#46495D;" vertex="1" parent="2nOwkgRxG5hWw0p1MQ7W-45">
          <mxGeometry x="160" y="40" width="160" height="30" as="geometry" />
        </mxCell>
        <mxCell id="2nOwkgRxG5hWw0p1MQ7W-47" value="&lt;u&gt;+ CardInfo(layout : CardLayout, panel : JPanel, mainScreen : MainScreen, data : Sting[]&lt;br&gt;&lt;/u&gt;" style="text;html=1;strokeColor=none;fillColor=none;align=center;verticalAlign=middle;whiteSpace=wrap;rounded=0;labelBackgroundColor=none;fontColor=#46495D;" vertex="1" parent="2nOwkgRxG5hWw0p1MQ7W-45">
          <mxGeometry x="15.5" y="100" width="470" height="30" as="geometry" />
        </mxCell>
        <mxCell id="2nOwkgRxG5hWw0p1MQ7W-48" value="" style="endArrow=none;html=1;exitX=0;exitY=0.5;exitDx=0;exitDy=0;entryX=1;entryY=0.5;entryDx=0;entryDy=0;labelBackgroundColor=none;strokeColor=#788AA3;fontColor=default;" edge="1" parent="2nOwkgRxG5hWw0p1MQ7W-50">
          <mxGeometry width="50" height="50" relative="1" as="geometry">
            <mxPoint y="88" as="sourcePoint" />
            <mxPoint x="501" y="88" as="targetPoint" />
          </mxGeometry>
        </mxCell>
        <mxCell id="2nOwkgRxG5hWw0p1MQ7W-52" value="MainScreen" style="swimlane;whiteSpace=wrap;html=1;rounded=0;labelBackgroundColor=none;fillColor=#B2C9AB;strokeColor=#788AA3;fontColor=#46495D;" vertex="1" parent="2nOwkgRxG5hWw0p1MQ7W-56">
          <mxGeometry x="780" y="350" width="440" height="150" as="geometry" />
        </mxCell>
        <mxCell id="2nOwkgRxG5hWw0p1MQ7W-53" value="- cardLayout : CardLayout&lt;br style=&quot;border-color: var(--border-color);&quot;&gt;- cardPanel : JPanel&lt;br&gt;- nickname : JTextField&lt;br&gt;- loginScreen : LoginScreen" style="text;html=1;strokeColor=none;fillColor=none;align=center;verticalAlign=middle;whiteSpace=wrap;rounded=0;labelBackgroundColor=none;fontColor=#46495D;" vertex="1" parent="2nOwkgRxG5hWw0p1MQ7W-52">
          <mxGeometry x="130" y="50" width="180" height="30" as="geometry" />
        </mxCell>
        <mxCell id="2nOwkgRxG5hWw0p1MQ7W-54" value="+ MainScreen(layout : CardLayout, panel : JPanel, loginScreen : LoginScreen)" style="text;html=1;strokeColor=none;fillColor=none;align=center;verticalAlign=middle;whiteSpace=wrap;rounded=0;labelBackgroundColor=none;fontColor=#46495D;" vertex="1" parent="2nOwkgRxG5hWw0p1MQ7W-52">
          <mxGeometry x="5" y="110" width="435" height="30" as="geometry" />
        </mxCell>
        <mxCell id="2nOwkgRxG5hWw0p1MQ7W-55" value="" style="endArrow=none;html=1;rounded=0;exitX=0;exitY=0.5;exitDx=0;exitDy=0;labelBackgroundColor=none;strokeColor=#788AA3;fontColor=default;" edge="1" parent="2nOwkgRxG5hWw0p1MQ7W-52">
          <mxGeometry width="50" height="50" relative="1" as="geometry">
            <mxPoint y="105" as="sourcePoint" />
            <mxPoint x="440" y="105" as="targetPoint" />
          </mxGeometry>
        </mxCell>
        <mxCell id="2nOwkgRxG5hWw0p1MQ7W-10" value="Utility" style="swimlane;whiteSpace=wrap;html=1;rounded=0;labelBackgroundColor=none;fillColor=#B2C9AB;strokeColor=#788AA3;fontColor=#46495D;" vertex="1" parent="2nOwkgRxG5hWw0p1MQ7W-56">
          <mxGeometry x="670" y="600" width="200" height="170" as="geometry" />
        </mxCell>
        <mxCell id="2nOwkgRxG5hWw0p1MQ7W-40" value="&lt;u&gt;- sound : Clip&lt;br&gt;- isPlaying : boolean&lt;br&gt;- soundPosition : long&lt;/u&gt;" style="text;html=1;strokeColor=none;fillColor=none;align=center;verticalAlign=middle;whiteSpace=wrap;rounded=0;labelBackgroundColor=none;fontColor=#46495D;" vertex="1" parent="2nOwkgRxG5hWw0p1MQ7W-10">
          <mxGeometry x="20" y="40" width="160" height="30" as="geometry" />
        </mxCell>
        <mxCell id="2nOwkgRxG5hWw0p1MQ7W-41" value="&lt;u&gt;+ playMusic()&lt;br&gt;+ startMusic()&lt;br&gt;+ stopMusic()&lt;br&gt;+ setFont1(size : float) : Font&lt;br&gt;&lt;/u&gt;&lt;u style=&quot;border-color: var(--border-color);&quot;&gt;+ setFont2(size : float) : Font&lt;/u&gt;&lt;u&gt;&lt;br&gt;&lt;/u&gt;" style="text;html=1;strokeColor=none;fillColor=none;align=center;verticalAlign=middle;whiteSpace=wrap;rounded=0;labelBackgroundColor=none;fontColor=#46495D;" vertex="1" parent="2nOwkgRxG5hWw0p1MQ7W-10">
          <mxGeometry x="20" y="110" width="160" height="30" as="geometry" />
        </mxCell>
        <mxCell id="2nOwkgRxG5hWw0p1MQ7W-42" value="" style="endArrow=none;html=1;exitX=0;exitY=0.5;exitDx=0;exitDy=0;entryX=1;entryY=0.5;entryDx=0;entryDy=0;labelBackgroundColor=none;strokeColor=#788AA3;fontColor=default;" edge="1" parent="2nOwkgRxG5hWw0p1MQ7W-56" source="2nOwkgRxG5hWw0p1MQ7W-10" target="2nOwkgRxG5hWw0p1MQ7W-10">
          <mxGeometry width="50" height="50" relative="1" as="geometry">
            <mxPoint x="740.5" y="810" as="sourcePoint" />
            <mxPoint x="790.5" y="760" as="targetPoint" />
          </mxGeometry>
        </mxCell>
        <mxCell id="2nOwkgRxG5hWw0p1MQ7W-59" style="edgeStyle=orthogonalEdgeStyle;rounded=0;orthogonalLoop=1;jettySize=auto;html=1;strokeColor=#788AA3;fontColor=#46495D;fillColor=#B2C9AB;" edge="1" parent="2nOwkgRxG5hWw0p1MQ7W-56" source="2nOwkgRxG5hWw0p1MQ7W-4" target="2nOwkgRxG5hWw0p1MQ7W-31">
          <mxGeometry relative="1" as="geometry" />
        </mxCell>
        <mxCell id="2nOwkgRxG5hWw0p1MQ7W-60" style="edgeStyle=orthogonalEdgeStyle;rounded=0;orthogonalLoop=1;jettySize=auto;html=1;strokeColor=#788AA3;fontColor=#46495D;fillColor=#B2C9AB;" edge="1" parent="2nOwkgRxG5hWw0p1MQ7W-56" source="2nOwkgRxG5hWw0p1MQ7W-4" target="2nOwkgRxG5hWw0p1MQ7W-8">
          <mxGeometry relative="1" as="geometry" />
        </mxCell>
        <mxCell id="2nOwkgRxG5hWw0p1MQ7W-63" value="" style="html=1;whiteSpace=wrap;aspect=fixed;shape=isoRectangle;strokeColor=#788AA3;fontColor=#46495D;fillColor=#B2C9AB;rotation=-90;" vertex="1" parent="2nOwkgRxG5hWw0p1MQ7W-56">
          <mxGeometry x="316.67" y="298.67" width="26.67" height="16" as="geometry" />
        </mxCell>
      </root>
    </mxGraphModel>
  </diagram>
</mxfile>
